<?xml version="1.0" encoding="UTF-8" standalone="no"?>
<!-- Created with Inkscape (http://www.inkscape.org/) -->

<svg
   width="156.54468mm"
   height="156.54468mm"
   viewBox="0 0 156.54468 156.54468"
   version="1.1"
   id="svg1"
   inkscape:version="1.4.1-rc (248a3f6024, 2025-03-18)"
   sodipodi:docname="dfd.svg"
   inkscape:export-filename="dfd.png"
   inkscape:export-xdpi="162.254"
   inkscape:export-ydpi="162.254"
   xmlns:inkscape="http://www.inkscape.org/namespaces/inkscape"
   xmlns:sodipodi="http://sodipodi.sourceforge.net/DTD/sodipodi-0.dtd"
   xmlns="http://www.w3.org/2000/svg"
   xmlns:svg="http://www.w3.org/2000/svg">
  <sodipodi:namedview
     id="namedview1"
     pagecolor="#ffffff"
     bordercolor="#000000"
     borderopacity="0.25"
     inkscape:showpageshadow="2"
     inkscape:pageopacity="0.0"
     inkscape:pagecheckerboard="0"
     inkscape:deskcolor="#d1d1d1"
     inkscape:document-units="mm"
     inkscape:zoom="1.0985947"
     inkscape:cx="309.48628"
     inkscape:cy="295.83247"
     inkscape:window-width="1920"
     inkscape:window-height="1138"
     inkscape:window-x="0"
     inkscape:window-y="0"
     inkscape:window-maximized="1"
     inkscape:current-layer="layer1" />
  <defs
     id="defs1" />
  <g
     inkscape:label="Ebene 1"
     inkscape:groupmode="layer"
     id="layer1"
     transform="translate(-271.66522,4.0570769)">
    <rect
       style="fill:#e3f3f6;fill-opacity:1;stroke:none;stroke-width:7.99994;-inkscape-stroke:none"
       id="rect1"
       width="156.54468"
       height="156.54468"
       x="271.66522"
       y="-4.0570769"
       ry="0" />
    <path
       id="path13"
       style="opacity:0.25;fill:#51c809;fill-opacity:1;stroke:none;stroke-width:0.0665203px;stroke-linecap:butt;stroke-linejoin:miter;stroke-opacity:1"
       d="m 285.61602,71.803199 8.51315,-8.633133 c 0,0 1.71085,-1.464351 2.00181,-2.778638 0.48414,-2.186815 3.53251,-3.963244 4.96076,-1.275333 l 1.66021,0.669607 -2.01512,0.868008 c 0,0 -2.19175,1.363129 -1.78853,5.203963 0.27144,2.58569 -1.29857,5.705125 -4.7793,7.733905 -3.52345,2.053677 -5.48998,1.916648 -8.34668,2.393945 -1.792,0.299384 -4.20229,-0.27685 -5.44122,0.318478 -1.23894,0.595327 -3.29631,1.668602 -4.51518,1.159085 -1.21888,-0.509491 -2.73987,-1.897844 -2.73987,-1.897844 0,0 -0.96961,-0.676455 0.76654,-0.826046 1.7276,-0.148873 9.15688,-0.271445 11.72343,-2.935997 z m 9.97732,-18.108266 c -0.10104,0.03597 -0.3116,0.179496 -0.655,0.416885 l -5.24723,3.627117 c 2.73777,1.24112 3.83059,4.831721 3.83059,4.831721 l 0.34172,-0.333326 c -0.092,0.0063 -0.11206,-4.925452 1.43301,-7.757504 0.32993,-0.604707 0.46535,-0.844591 0.29691,-0.784893 z m -14.02689,3.523035 -7.96142,8.07369 c -0.30468,0.30896 -0.20118,0.527538 0.23235,0.510187 1.54089,-0.06162 4.9907,-0.02055 7.02606,1.387437 2.67944,1.853489 3.40477,4.61646 3.40477,4.61646 l 8.51308,-8.633145 c 0,0 -0.72518,-2.762972 -3.40462,-4.616463 -2.67944,-1.85352 -7.81022,-1.338166 -7.81022,-1.338166 z" />
    <path
       id="path15"
       style="opacity:0.25;fill:#09c81f;fill-opacity:1;stroke:none;stroke-width:0.0665203px;stroke-linecap:butt;stroke-linejoin:miter;stroke-opacity:1"
       d="m 320.92475,69.914124 8.86691,-8.269377 c 0,0 1.77062,-1.391486 2.11632,-2.692448 0.57521,-2.164643 3.69524,-3.81197 5.00978,-1.066655 l 1.63073,0.738485 -2.04967,0.782934 c 0,0 -2.24686,1.270232 -2.00471,5.124573 0.16303,2.594782 -1.53613,5.645795 -5.0987,7.527163 -3.60628,1.904455 -5.56536,1.685266 -8.43953,2.042619 -1.80296,0.224144 -4.18703,-0.452434 -5.44978,0.09054 -1.26276,0.542968 -3.36324,1.529222 -4.55972,0.969152 -1.1965,-0.560043 -2.65807,-2.01082 -2.65807,-2.01082 0,0 -0.94046,-0.716431 0.80043,-0.79325 1.73232,-0.07646 9.16022,0.111922 11.83601,-2.442911 z M 331.651,52.239173 c -0.10246,0.03171 -0.31884,0.166302 -0.67187,0.389114 l -5.3944,3.404394 c 2.68344,1.354583 3.62507,4.987764 3.62507,4.987764 l 0.35537,-0.318737 c -0.0922,0.0024 0.0941,-4.925827 1.75633,-7.690752 0.35494,-0.590374 0.50028,-0.824381 0.3295,-0.771783 z m -14.16202,2.933057 -8.29226,7.733509 c -0.31733,0.295941 -0.22307,0.518658 0.21081,0.519461 1.54211,0.0029 4.98718,0.188288 6.96186,1.680197 2.59953,1.963976 3.20862,4.754876 3.20862,4.754876 l 8.86685,-8.269393 c 0,0 -0.60894,-2.790895 -3.20848,-4.754872 -2.59955,-1.964006 -7.7474,-1.663778 -7.7474,-1.663778 z" />
    <path
       id="path17"
       style="opacity:0.25;fill:#09c890;fill-opacity:1;stroke:none;stroke-width:0.0665203px;stroke-linecap:butt;stroke-linejoin:miter;stroke-opacity:1"
       d="m 339.93481,95.930023 6.57526,-10.18679 c 0,0 1.37654,-1.78226 1.39358,-3.128262 0.0283,-2.239585 2.65076,-4.599935 4.59678,-2.259474 l 1.76182,0.31724 -1.79596,1.260436 c 0,0 -1.86797,1.781158 -0.69054,5.459233 0.79266,2.476118 -0.10873,5.850035 -3.103,8.545546 -3.03101,2.72859 -4.9842,2.995177 -7.68369,4.044594 -1.6934,0.658274 -4.17054,0.585304 -5.26216,1.420604 -1.09162,0.83531 -2.8871,2.30531 -4.18423,2.05487 -1.29713,-0.25042 -3.06912,-1.29969 -3.06912,-1.29969 0,0 -1.08712,-0.46468 0.58212,-0.96492 1.66102,-0.4978 8.90942,-2.131736 10.87914,-5.263387 z m 6.07787,-19.761473 c -0.0916,0.05581 -0.26848,0.239228 -0.5563,0.541613 l -4.398,4.620288 c 2.93324,0.657175 4.73482,3.94974 4.73482,3.94974 l 0.26662,-0.395968 c -0.0888,0.02489 -1.11341,-4.799264 -0.17788,-7.886743 0.19978,-0.659252 0.28347,-0.921698 0.13074,-0.82893 z m -13.01464,6.307507 -6.14911,9.526653 c -0.23532,0.364563 -0.0894,0.557463 0.33145,0.452132 1.49599,-0.374326 4.88178,-1.037115 7.16136,-0.07344 3.00091,1.268583 4.27406,3.82577 4.27406,3.82577 l 6.57519,-10.186787 c 0,0 -1.273,-2.557219 -4.27392,-3.825802 -3.00093,-1.268611 -7.91903,0.281478 -7.91903,0.281478 z" />
    <path
       id="path19"
       style="opacity:0.25;fill:#09c83f;fill-opacity:1;stroke:none;stroke-width:0.0581209px;stroke-linecap:butt;stroke-linejoin:miter;stroke-opacity:1"
       d="m 319.65412,34.602043 8.70905,-6.03131 c 0,0 1.70632,-0.979755 2.16928,-2.060944 0.77031,-1.798969 3.67558,-2.829738 4.46588,-0.290409 l 1.31677,0.844138 -1.87085,0.418419 c 0,0 -2.10278,0.814859 -2.37951,4.177789 -0.18629,2.26396 -2.04012,4.687522 -5.35752,5.864829 -3.3581,1.191755 -5.02424,0.755181 -7.55426,0.70167 -1.58707,-0.03359 -3.56297,-0.919207 -4.7232,-0.609017 -1.16023,0.310189 -3.10064,0.897988 -4.06447,0.262868 -0.96384,-0.635096 -2.04453,-2.073736 -2.04453,-2.073736 0,0 -0.72275,-0.738018 0.79208,-0.584884 1.50738,0.152365 7.90564,1.251994 10.54128,-0.619413 z m 11.50277,-13.928706 c -0.0926,0.0145 -0.29664,0.103571 -0.62996,0.251689 l -5.09324,2.263068 c 2.14922,1.509566 2.50514,4.769498 2.50514,4.769498 l 0.34745,-0.230757 c -0.08,-0.0095 0.70259,-4.246908 2.4884,-6.427783 0.38133,-0.465663 0.53649,-0.649653 0.3822,-0.625716 z m -12.61412,0.749842 -8.14463,5.640481 c -0.31168,0.215846 -0.25827,0.420291 0.11675,0.475703 1.33291,0.196996 4.28808,0.791741 5.80719,2.330651 1.99983,2.025854 2.17447,4.515629 2.17447,4.515629 l 8.70899,-6.031333 c 0,0 -0.17451,-2.489751 -2.17434,-4.515606 -1.99983,-2.025881 -6.48843,-2.415525 -6.48843,-2.415525 z" />
    <path
       id="path21"
       style="opacity:0.25;fill:#09c2c8;fill-opacity:1;stroke:none;stroke-width:0.0581209px;stroke-linecap:butt;stroke-linejoin:miter;stroke-opacity:1"
       d="m 352.99049,37.698425 6.55254,-8.323964 c 0,0 1.34315,-1.437857 1.468,-2.607349 0.20774,-1.945894 2.68192,-3.784785 4.18344,-1.589741 l 1.50667,0.41999 -1.66534,0.949637 c 0,0 -1.77055,1.396726 -1.04697,4.692528 0.48712,2.218768 -0.57281,5.080046 -3.39787,7.180095 -2.85972,2.125821 -4.5806,2.198057 -7.01466,2.890269 -1.5269,0.434204 -3.67579,0.168226 -4.69367,0.805619 -1.01788,0.637394 -2.69994,1.769373 -3.80784,1.445476 -1.10789,-0.323873 -2.56358,-1.381489 -2.56358,-1.381489 0,0 -0.90769,-0.493087 0.58527,-0.791794 1.48561,-0.297252 7.92455,-1.126076 9.89401,-3.689277 z m 6.90256,-16.693624 c -0.0842,0.04106 -0.25311,0.186156 -0.5282,0.425672 l -4.2035,3.659659 c 2.4979,0.811458 3.79593,3.822928 3.79593,3.822928 l 0.26431,-0.322657 c -0.0793,0.01439 -0.57624,-4.265889 0.48997,-6.875205 0.22768,-0.557151 0.32194,-0.77861 0.18149,-0.710397 z m -11.83703,4.422985 -6.12787,7.784549 c -0.23451,0.297896 -0.12338,0.477624 0.25136,0.420403 1.33197,-0.203332 4.33144,-0.503114 6.23566,0.521529 2.50679,1.348854 3.40526,3.677422 3.40526,3.677422 l 6.55248,-8.323968 c 0,0 -0.89833,-2.328584 -3.40513,-3.677438 -2.50679,-1.348878 -6.91176,-0.402497 -6.91176,-0.402497 z" />
    <path
       id="path23"
       style="opacity:0.25;fill:#09b9c8;fill-opacity:1;stroke:none;stroke-width:0.0581209px;stroke-linecap:butt;stroke-linejoin:miter;stroke-opacity:1"
       d="m 359.66649,63.642247 5.43426,-9.093571 c 0,0 1.14824,-1.597816 1.12251,-2.773672 -0.0428,-1.956483 2.1759,-4.096679 3.94579,-2.111674 l 1.54801,0.223865 -1.53022,1.154807 c 0,0 -1.5774,1.611679 -0.43829,4.787889 0.76686,2.138257 0.0815,5.111587 -2.45176,7.555667 -2.56439,2.474074 -4.2619,2.765785 -6.58746,3.763588 -1.45883,0.625901 -3.62409,0.636911 -4.5521,1.39924 -0.92802,0.762329 -2.45151,2.100119 -3.59172,1.920561 -1.14022,-0.179534 -2.7192,-1.042311 -2.7192,-1.042311 0,0 -0.9633,-0.37296 0.4792,-0.860137 1.4354,-0.484795 7.71549,-2.130239 9.34098,-4.924252 z m 4.71108,-17.439273 c -0.0783,0.05149 -0.22722,0.216996 -0.46943,0.489725 l -3.70098,4.167162 c 2.58115,0.485361 4.25364,3.306109 4.25364,3.306109 l 0.22088,-0.353807 c -0.0768,0.02441 -1.11704,-4.157174 -0.39327,-6.881415 0.15457,-0.581692 0.21973,-0.813388 0.0892,-0.727774 z m -11.17422,5.900412 -5.08206,8.504278 c -0.19449,0.32544 -0.0613,0.489481 0.30306,0.384807 1.29503,-0.371997 4.23154,-1.052896 6.25116,-0.280182 2.6587,1.017206 3.84757,3.211758 3.84757,3.211758 l 5.4342,-9.093568 c 0,0 -1.18874,-2.194584 -3.84745,-3.21179 -2.65871,-1.017229 -6.90648,0.484697 -6.90648,0.484697 z" />
    <path
       id="path25"
       style="opacity:0.25;fill:#3ac809;fill-opacity:1;stroke:none;stroke-width:0.0388021px;stroke-linecap:butt;stroke-linejoin:miter;stroke-opacity:1"
       d="m 381.78428,35.22597 3.98232,-5.844641 c 0,0 0.82861,-1.019279 0.85811,-1.803926 0.0491,-1.305558 1.61261,-2.643828 2.71337,-1.250744 l 1.02276,0.210604 -1.0656,0.70889 c 0,0 -1.11517,1.011493 -0.48204,3.173407 0.42623,1.455422 -0.14844,3.409752 -1.93368,4.938058 -1.80714,1.547062 -2.94998,1.674123 -4.53939,2.246828 -0.99704,0.359244 -2.44047,0.28068 -3.08917,0.751902 -0.6487,0.471223 -1.71708,1.302326 -2.46983,1.137428 -0.75275,-0.164883 -1.77081,-0.802505 -1.77081,-0.802505 0,0 -0.62717,-0.286769 0.35349,-0.554211 0.97582,-0.266136 5.22634,-1.113562 6.42047,-2.91109 z m 3.83146,-11.43516 c -0.0542,0.03121 -0.16004,0.135598 -0.33227,0.307744 l -2.63177,2.630296 c 1.70091,0.42586 2.7036,2.372044 2.7036,2.372044 l 0.16123,-0.227025 c -0.0521,0.01322 -0.5795,-2.814783 0.0109,-4.601586 0.12609,-0.381525 0.1787,-0.533349 0.0883,-0.481473 z m -7.68092,3.488904 -3.72423,5.46589 c -0.14252,0.209168 -0.0603,0.323774 0.18671,0.268471 0.8778,-0.196534 2.86179,-0.533807 4.17707,0.06128 1.73149,0.783374 2.43672,2.293056 2.43672,2.293056 l 3.98228,-5.844641 c 0,0 -0.70515,-1.509698 -2.43663,-2.293072 -1.73149,-0.78339 -4.62192,0.04902 -4.62192,0.04902 z" />
    <path
       id="path27"
       style="opacity:0.25;fill:#5ec809;fill-opacity:1;stroke:none;stroke-width:0.0388021px;stroke-linecap:butt;stroke-linejoin:miter;stroke-opacity:1"
       d="m 372.80147,16.200292 5.08473,-4.915714 c 0,0 1.01808,-0.830084 1.20608,-1.5924484 0.3128,-1.2684823 2.1152,-2.2619102 2.91061,-0.6745619 l 0.95881,0.4136174 -1.18721,0.4780885 c 0,0 -1.2971,0.7643534 -1.1155,3.0097364 0.12225,1.511616 -0.83677,3.308816 -2.89482,4.443375 -2.0833,1.148483 -3.22816,1.041166 -4.90068,1.279684 -1.04918,0.149608 -2.44669,-0.220014 -3.17747,0.10988 -0.73077,0.329894 -1.94548,0.927094 -2.64915,0.612983 -0.70369,-0.314095 -1.5713,-1.144906 -1.5713,-1.144906 0,0 -0.55599,-0.407985 0.45852,-0.47102 1.00952,-0.06274 5.34357,-0.03067 6.87738,-1.548714 z m 6.07062,-10.4206834 c -0.0594,0.019567 -0.18421,0.1003295 -0.38777,0.2339751 l -3.11045,2.0420008 c 1.57921,0.7619111 2.16644,2.8709835 2.16644,2.8709835 l 0.20392,-0.189615 c -0.0538,0.0024 0.003,-2.8738141 0.94377,-4.5037759 0.20083,-0.3480338 0.28314,-0.4860333 0.18409,-0.4535685 z m -8.22882,1.8589371 -4.75519,4.5971673 c -0.18198,0.175922 -0.12467,0.304827 0.12839,0.300751 0.89941,-0.01445 2.91058,0.05758 4.07787,0.907005 1.53667,1.118199 1.92113,2.739521 1.92113,2.739521 l 5.08469,-4.915723 c 0,0 -0.38438,-1.6213202 -1.92105,-2.7395195 -1.53667,-1.1182162 -4.53584,-0.8892018 -4.53584,-0.8892018 z" />
    <path
       id="path29"
       style="opacity:0.25;fill:#09c812;fill-opacity:1;stroke:none;stroke-width:0.0388021px;stroke-linecap:butt;stroke-linejoin:miter;stroke-opacity:1"
       d="m 351.46514,13.221876 5.48335,-4.4667124 c 0,0 1.08482,-0.740739 1.3368,-1.4844106 0.41927,-1.2373793 2.29944,-2.0743472 2.95735,-0.4252523 l 0.92027,0.493453 -1.22348,0.3756667 c 0,0 -1.35726,0.651579 -1.36677,2.9042736 -0.006,1.516537 -1.11441,3.225917 -3.26127,4.181824 -2.17321,0.967638 -3.30485,0.7636 -4.99157,0.859395 -1.05808,0.06008 -2.41921,-0.426749 -3.17534,-0.160028 -0.75612,0.266721 -2.0171,0.758737 -2.6916,0.386072 -0.6745,-0.372649 -1.46852,-1.274057 -1.46852,-1.274057 0,0 -0.51939,-0.453674 0.49682,-0.430431 1.0112,0.02312 5.32691,0.422687 6.98396,-0.959793 z m 6.93262,-9.8682207 c -0.0609,0.014457 -0.19206,0.084343 -0.40622,0.2002412 l -3.27244,1.7708136 c 1.5089,0.8931146 1.91512,3.0443954 1.91512,3.0443954 l 0.21926,-0.1716352 c -0.0537,-0.00219 0.24705,-2.863178 1.32239,-4.4074952 0.22962,-0.3297455 0.32334,-0.460266 0.22189,-0.4363198 z m -8.35684,1.1542695 -5.12798,4.1772652 c -0.19625,0.1598528 -0.15008,0.2931545 0.10241,0.3105572 0.8974,0.061886 2.89521,0.304247 3.98625,1.2496218 1.43628,1.244508 1.68183,2.892598 1.68183,2.892598 l 5.48332,-4.4667239 c 0,0 -0.24547,-1.6480807 -1.68175,-2.8925905 -1.43629,-1.2445269 -4.44408,-1.2707278 -4.44408,-1.2707278 z" />
    <path
       id="path31"
       style="opacity:0.25;fill:#09c867;fill-opacity:1;stroke:none;stroke-width:0.0295627px;stroke-linecap:butt;stroke-linejoin:miter;stroke-opacity:1"
       d="m 390.48788,7.2794333 3.58254,-4.024879 c 0,0 0.7261,-0.688755 0.82542,-1.2786852 0.16525,-0.98157265 1.47791,-1.83919105 2.17282,-0.6786113 l 0.75205,0.2595207 -0.87468,0.4309818 c 0,0 -0.94184,0.654742 -0.67573,2.350291 0.17916,1.141461 -0.44688,2.561606 -1.94571,3.541038 -1.51723,0.991451 -2.39316,0.975259 -3.65023,1.251927 -0.78856,0.173543 -1.87141,-0.02751 -2.40778,0.264828 -0.53638,0.292342 -1.42516,0.8153877 -1.9777,0.6169047 -0.55254,-0.1984697 -1.25912,-0.7801547 -1.25912,-0.7801547 0,0 -0.4457,-0.278232 0.32147,-0.384024 0.7634,-0.105279 4.05799,-0.328272 5.13665,-1.569137 z m 4.01737,-8.26350675 c -0.044,0.018257 -0.13422,0.086738 -0.28125,0.1998921 l -2.2466,1.728918 c 1.24328,0.48872585 1.8098,2.05756365 1.8098,2.05756365 l 0.1441,-0.155697 c -0.0407,0.0049 -0.16151,-2.18354795 0.45998,-3.47557515 0.13271,-0.2758778 0.18737,-0.38541975 0.11397,-0.3551016 z m -6.14569,1.8819576 -3.35034,3.76405815 c -0.12822,0.144041 -0.0773,0.238705 0.1147,0.221166 0.6825,-0.06231 2.21458,-0.122371 3.1499,0.456353 1.23129,0.761841 1.61592,1.971686 1.61592,1.971686 l 3.5825,-4.024882 c 0,0 -0.38456,-1.2098496 -1.61585,-1.9716909 -1.2313,-0.76185425 -3.49683,-0.41669025 -3.49683,-0.41669025 z" />
    <path
       id="path37"
       style="opacity:0.25;fill:#28c809;fill-opacity:1;stroke:none;stroke-width:0.0119238px;stroke-linecap:butt;stroke-linejoin:miter;stroke-opacity:1"
       d="m 406.65316,1.2947738 1.72051,-1.32784968 c 0,0 0.33923,-0.21878729 0.42264,-0.4452015 0.13879,-0.37672575 0.72312,-0.61865032 0.9119,-0.10674992 l 0.27872,0.1590165 -0.37888,0.10552051 c 0,0 -0.4222,0.18919787 -0.44331,0.88112851 -0.0142,0.46581488 -0.36839,0.98197248 -1.03561,1.25828038 -0.67541,0.2796986 -1.02139,0.207881 -1.54031,0.2236861 -0.32551,0.00991 -0.73971,-0.1506312 -0.97414,-0.074804 -0.23443,0.075828 -0.62576,0.2167872 -0.82995,0.09686 -0.20419,-0.1199219 -0.44083,-0.4032387 -0.44083,-0.4032387 0,0 -0.15589,-0.1435594 0.1561,-0.1282125 0.31044,0.015268 1.63296,0.1728663 2.15316,-0.2384357 z m 2.20933,-2.97544 c -0.0188,0.00395 -0.0597,0.024358 -0.1264,0.058232 l -1.01957,0.5175495 c 0.45631,0.28654277 0.56372,0.9506775 0.56372,0.9506775 l 0.0688,-0.050954 c -0.0165,-0.001108 0.099,-0.8775473 0.44181,-1.3432631 0.0732,-0.09944 0.10305,-0.1387783 0.0717,-0.1322417 z m -2.57647,0.2870907 -1.609,1.24180422 c -0.0616,0.0475205 -0.0485,0.08884241 0.0289,0.09622748 0.27517,0.02625819 0.88693,0.1168439 1.21445,0.41606566 0.43116,0.39390145 0.49328,0.90216284 0.49328,0.90216284 l 1.7205,-1.32785364 c 0,0 -0.0621,-0.50825796 -0.49326,-0.90215973 -0.43116,-0.39390703 -1.35492,-0.42624683 -1.35492,-0.42624683 z" />
    <path
       id="path39"
       style="opacity:0.25;fill:#09c83f;fill-opacity:1;stroke:none;stroke-width:0.0119238px;stroke-linecap:butt;stroke-linejoin:miter;stroke-opacity:1"
       d="m 414.57751,-0.08077014 1.22376,-1.79604146 c 0,0 0.25463,-0.3132215 0.26369,-0.5543414 0.0151,-0.4011942 0.49555,-0.8124407 0.83381,-0.38435 l 0.3143,0.064718 -0.32746,0.21784 c 0,0 -0.34269,0.3108289 -0.14813,0.9751787 0.13098,0.4472472 -0.0456,1.04780708 -0.59421,1.51745126 -0.55533,0.47540769 -0.90652,0.51445316 -1.39495,0.6904437 -0.30638,0.11039474 -0.74995,0.0862522 -0.94929,0.23105749 -0.19934,0.14480535 -0.52765,0.40020105 -0.75897,0.34952815 -0.23132,-0.050668 -0.54416,-0.24660742 -0.54416,-0.24660742 0,0 -0.19273,-0.0881232 0.10862,-0.17030728 0.29987,-0.0817828 1.60604,-0.34219462 1.97299,-0.89456974 z m 1.1774,-3.51399196 c -0.0167,0.00959 -0.0492,0.041669 -0.1021,0.094569 l -0.80874,0.8082824 c 0.52268,0.1308655 0.83081,0.7289224 0.83081,0.7289224 l 0.0495,-0.069764 c -0.016,0.00406 -0.17807,-0.8649746 0.003,-1.414054 0.0387,-0.1172417 0.0549,-0.1638967 0.0271,-0.1479554 z m -2.36033,1.0721302 -1.14444,1.67965244 c -0.0438,0.0642765 -0.0185,0.0994947 0.0574,0.0825001 0.26974,-0.0603941 0.87942,-0.16403712 1.2836,0.0188305 0.53208,0.24072857 0.7488,0.70464935 0.7488,0.70464935 l 1.22374,-1.79604149 c 0,0 -0.21669,-0.4639258 -0.74877,-0.7046543 -0.53208,-0.2407336 -1.42031,0.015063 -1.42031,0.015063 z" />
    <path
       id="path41"
       style="opacity:0.25;fill:#3fc809;fill-opacity:1;stroke:none;stroke-width:0.0119238px;stroke-linecap:butt;stroke-linejoin:miter;stroke-opacity:1"
       d="m 410.94783,12.046709 1.22376,-1.796042 c 0,0 0.25463,-0.3132211 0.26369,-0.554341 0.0151,-0.4011942 0.49555,-0.8124407 0.83381,-0.38435 l 0.3143,0.064718 -0.32746,0.21784 c 0,0 -0.34269,0.3108289 -0.14813,0.975179 0.13098,0.447247 -0.0456,1.047807 -0.59421,1.517451 -0.55533,0.475408 -0.90652,0.514453 -1.39495,0.690444 -0.30638,0.110394 -0.74995,0.08625 -0.94929,0.231057 -0.19934,0.144805 -0.52765,0.400201 -0.75897,0.349528 -0.23132,-0.05067 -0.54416,-0.246607 -0.54416,-0.246607 0,0 -0.19273,-0.08812 0.10862,-0.170307 0.29987,-0.08178 1.60604,-0.342195 1.97299,-0.89457 z m 1.1774,-3.5139921 c -0.0167,0.00959 -0.0492,0.041669 -0.1021,0.094569 l -0.80874,0.8082824 c 0.52268,0.1308655 0.83081,0.7289217 0.83081,0.7289217 l 0.0495,-0.06976 c -0.016,0.0041 -0.17807,-0.8649741 0.003,-1.4140535 0.0387,-0.1172417 0.0549,-0.1638967 0.0271,-0.1479554 z M 409.7649,9.6048471 408.62046,11.2845 c -0.0438,0.06428 -0.0185,0.09949 0.0574,0.0825 0.26974,-0.06039 0.87942,-0.164037 1.2836,0.01883 0.53208,0.240729 0.7488,0.70465 0.7488,0.70465 l 1.22374,-1.796042 c 0,0 -0.21669,-0.4639258 -0.74877,-0.7046543 -0.53208,-0.2407336 -1.42031,0.015063 -1.42031,0.015063 z" />
    <path
       id="path43"
       style="opacity:0.25;fill:#2dc809;fill-opacity:1;stroke:none;stroke-width:0.0119238px;stroke-linecap:butt;stroke-linejoin:miter;stroke-opacity:1"
       d="m 416.22707,6.7674659 1.22376,-1.7960415 c 0,0 0.25463,-0.3132215 0.26369,-0.5543414 0.0151,-0.4011942 0.49555,-0.8124407 0.83381,-0.38435 l 0.3143,0.064718 -0.32746,0.21784 c 0,0 -0.34269,0.3108289 -0.14813,0.9751787 0.13098,0.4472472 -0.0456,1.0478071 -0.59421,1.5174513 -0.55533,0.4754077 -0.90652,0.5144531 -1.39495,0.6904437 -0.30638,0.1103947 -0.74995,0.086252 -0.94929,0.2310574 -0.19934,0.1448054 -0.52765,0.4002011 -0.75897,0.3495282 -0.23132,-0.050668 -0.54416,-0.2466074 -0.54416,-0.2466074 0,0 -0.19273,-0.088123 0.10862,-0.1703073 0.29987,-0.081783 1.60604,-0.3421946 1.97299,-0.8945697 z m 1.1774,-3.513992 c -0.0167,0.00959 -0.0492,0.041669 -0.1021,0.094569 l -0.80874,0.8082824 c 0.52268,0.1308655 0.83081,0.7289224 0.83081,0.7289224 l 0.0495,-0.069764 c -0.016,0.00406 -0.17807,-0.8649746 0.003,-1.414054 0.0387,-0.1172417 0.0549,-0.1638967 0.0271,-0.1479554 z m -2.36033,1.0721302 -1.14444,1.6796524 c -0.0438,0.064277 -0.0185,0.099495 0.0574,0.0825 0.26974,-0.060394 0.87942,-0.1640372 1.2836,0.01883 0.53208,0.2407285 0.7488,0.7046493 0.7488,0.7046493 l 1.22374,-1.7960415 c 0,0 -0.21669,-0.4639258 -0.74877,-0.7046543 -0.53208,-0.2407336 -1.42031,0.015063 -1.42031,0.015063 z" />
    <path
       id="path33"
       style="opacity:0.25;fill:#09c863;fill-opacity:1;stroke:none;stroke-width:0.0119238px;stroke-linecap:butt;stroke-linejoin:miter;stroke-opacity:1"
       d="m 423.50356,-1.4869821 1.22376,-1.7960415 c 0,0 0.25463,-0.3132215 0.26369,-0.5543414 0.0151,-0.4011942 0.49555,-0.8124407 0.83381,-0.38435 l 0.3143,0.064718 -0.32746,0.21784 c 0,0 -0.34269,0.3108289 -0.14813,0.9751787 0.13098,0.4472472 -0.0456,1.0478071 -0.59421,1.5174513 -0.55533,0.47540765 -0.90652,0.51445312 -1.39495,0.69044366 -0.30638,0.11039474 -0.74995,0.0862522 -0.94929,0.23105749 -0.19934,0.14480532 -0.52765,0.40020102 -0.75897,0.34952819 -0.23132,-0.0506678 -0.54416,-0.24660746 -0.54416,-0.24660746 0,0 -0.19273,-0.0881232 0.10862,-0.17030728 0.29987,-0.0817828 1.60604,-0.34219462 1.97299,-0.8945697 z m 1.1774,-3.513992 c -0.0167,0.00959 -0.0492,0.041669 -0.1021,0.094569 l -0.80874,0.8082824 c 0.52268,0.1308655 0.83081,0.7289224 0.83081,0.7289224 l 0.0495,-0.069764 c -0.016,0.00406 -0.17807,-0.8649746 0.003,-1.414054 0.0387,-0.1172417 0.0549,-0.1638967 0.0271,-0.1479554 z m -2.36033,1.0721302 -1.14444,1.6796524 c -0.0438,0.064277 -0.0185,0.099495 0.0574,0.0825 0.26974,-0.060394 0.87942,-0.1640372 1.2836,0.01883 0.53208,0.2407285 0.7488,0.7046493 0.7488,0.7046493 l 1.22374,-1.7960415 c 0,0 -0.21669,-0.4639258 -0.74877,-0.7046543 -0.53208,-0.2407336 -1.42031,0.015063 -1.42031,0.015063 z" />
    <path
       id="path35"
       style="opacity:0.25;fill:#09c851;fill-opacity:1;stroke:none;stroke-width:0.0178034px;stroke-linecap:butt;stroke-linejoin:miter;stroke-opacity:1"
       d="m 403.84658,11.056189 1.8272,-2.6816729 c 0,0 0.38018,-0.4676716 0.39372,-0.827688 0.0225,-0.5990238 0.73991,-1.2130567 1.24496,-0.5738738 l 0.46927,0.096631 -0.48892,0.3252573 c 0,0 -0.51167,0.4640991 -0.22117,1.456041 0.19556,0.6677856 -0.0681,1.5644824 -0.88723,2.2657084 -0.82916,0.709833 -1.35352,0.768132 -2.08279,1.030904 -0.45746,0.16483 -1.11975,0.128783 -1.41739,0.344991 -0.29764,0.216209 -0.78784,0.597541 -1.13322,0.521882 -0.34538,-0.07565 -0.81249,-0.36821 -0.81249,-0.36821 0,0 -0.28776,-0.131577 0.16219,-0.254286 0.44773,-0.12211 2.39798,-0.510931 2.94587,-1.335684 z m 1.75798,-5.2467478 c -0.0249,0.01432 -0.0734,0.062216 -0.15246,0.141201 L 404.24458,7.15749 c 0.78042,0.1953955 1.24048,1.0883552 1.24048,1.0883552 l 0.074,-0.104165 c -0.0239,0.00607 -0.26589,-1.291495 0.005,-2.1113265 0.0578,-0.1750538 0.082,-0.2447144 0.0405,-0.2209125 z m -3.52421,1.6007995 -1.70877,2.507892 c -0.0654,0.095971 -0.0276,0.1485553 0.0857,0.1231813 0.40276,-0.090175 1.31306,-0.2449243 1.91655,0.02812 0.79445,0.359432 1.11803,1.052113 1.11803,1.052113 L 405.319,8.4398702 c 0,0 -0.32354,-0.6926884 -1.11799,-1.0521207 -0.79445,-0.3594397 -2.12066,0.022491 -2.12066,0.022491 z" />
    <path
       id="path2"
       style="opacity:0.25;fill:#31c809;fill-opacity:1;stroke:none;stroke-width:0.0178034px;stroke-linecap:butt;stroke-linejoin:miter;stroke-opacity:1"
       d="m 395.80625,19.313143 1.8272,-2.681673 c 0,0 0.38018,-0.467671 0.39372,-0.827688 0.0225,-0.599024 0.73991,-1.213057 1.24496,-0.573874 l 0.46927,0.09663 -0.48892,0.325257 c 0,0 -0.51167,0.464099 -0.22117,1.456041 0.19556,0.667786 -0.0681,1.564483 -0.88723,2.265709 -0.82916,0.709832 -1.35352,0.768131 -2.08279,1.030903 -0.45746,0.16483 -1.11975,0.128783 -1.41739,0.344992 -0.29764,0.216209 -0.78784,0.597541 -1.13322,0.521881 -0.34538,-0.07565 -0.81249,-0.36821 -0.81249,-0.36821 0,0 -0.28776,-0.131577 0.16219,-0.254286 0.44773,-0.12211 2.39798,-0.510931 2.94587,-1.335682 z m 1.75798,-5.246748 c -0.0249,0.01432 -0.0734,0.06222 -0.15246,0.141201 l -1.20752,1.206848 c 0.78042,0.195396 1.24048,1.088355 1.24048,1.088355 l 0.074,-0.104165 c -0.0239,0.0061 -0.26589,-1.291495 0.005,-2.111326 0.0578,-0.175054 0.082,-0.244715 0.0405,-0.220913 z m -3.52421,1.6008 -1.70877,2.507892 c -0.0654,0.09597 -0.0276,0.148555 0.0857,0.123181 0.40276,-0.09017 1.31306,-0.244924 1.91655,0.02812 0.79445,0.359432 1.11803,1.052113 1.11803,1.052113 l 1.82717,-2.681673 c 0,0 -0.32354,-0.692688 -1.11799,-1.05212 -0.79445,-0.35944 -2.12066,0.02249 -2.12066,0.02249 z" />
    <g
       id="g331"
       transform="matrix(0.38830459,0,0,0.38830459,612.53347,-339.45497)"
       inkscape:label="DFD Colored">
      <text
         xml:space="preserve"
         style="font-size:45.6646px;line-height:0.9;font-family:Bahnschrift;-inkscape-font-specification:'Bahnschrift, Normal';font-variant-ligatures:none;text-align:center;letter-spacing:0px;text-anchor:middle;fill:#09ca61;fill-opacity:1;stroke-width:0.264582"
         x="-751.81909"
         y="1159.8335"
         id="text329"><tspan
           sodipodi:role="line"
           id="tspan329"
           style="font-style:italic;font-variant:normal;font-weight:bold;font-stretch:normal;font-family:Ubuntu;-inkscape-font-specification:'Ubuntu Bold Italic';text-align:start;text-anchor:start;fill:#09ca61;fill-opacity:1;stroke-width:0.264582"
           x="-751.81909"
           y="1159.8335">Document</tspan></text>
      <g
         id="g330"
         transform="translate(-507.5886,50.955444)"
         style="fill:#09ca61;fill-opacity:1">
        <path
           id="path329"
           style="fill:#09ca61;fill-opacity:1;stroke:none;stroke-width:0.237709px;stroke-linecap:butt;stroke-linejoin:miter;stroke-opacity:1"
           d="m -283.96214,1059.8167 c -0.33217,0.1912 -0.98043,0.8307 -2.03556,1.8853 l -16.12272,16.1137 c 10.42007,2.6089 16.56275,14.5316 16.56275,14.5316 l 0.98775,-1.3908 c -0.31947,0.081 -3.55013,-17.2439 0.0669,-28.1902 0.7724,-2.3373 1.09476,-3.2674 0.54087,-2.9496 z m -47.05484,21.3737 -22.8153,33.4851 c -0.87313,1.2814 -0.3692,1.9835 1.14378,1.6447 5.37759,-1.204 17.5319,-3.2702 25.58957,0.3754 10.6074,4.7991 14.92782,14.0477 14.92782,14.0477 l 24.39622,-35.8054 c 0,0 -4.31989,-9.2487 -14.92731,-14.0478 -10.60745,-4.7992 -28.31478,0.3003 -28.31478,0.3003 z" />
        <path
           style="fill:#09ca61;fill-opacity:1;stroke:none;stroke-width:0.237709px;stroke-linecap:butt;stroke-linejoin:miter;stroke-opacity:1"
           d="m -307.43445,1129.8707 24.39648,-35.8054 c 0,0 5.07623,-6.2443 5.25696,-11.0512 0.30072,-7.9981 9.87915,-16.1966 16.62262,-7.6623 l 6.26563,1.2902 -6.52807,4.3428 c 0,0 -6.83172,6.1966 -2.95305,19.4409 2.61116,8.9162 -0.90942,20.8888 -11.8461,30.2515 -11.0709,9.4776 -18.07217,10.256 -27.8092,13.7645 -6.10806,2.2008 -14.95081,1.7195 -18.92487,4.6063 -3.97406,2.8868 -10.51912,7.9783 -15.13063,6.9681 -4.61151,-1.0101 -10.8483,-4.9163 -10.8483,-4.9163 0,0 -3.84219,-1.7568 2.16549,-3.3952 5.9781,-1.6304 32.0176,-6.8219 39.33304,-17.8339 z"
           id="path330"
           sodipodi:nodetypes="ccscccssssscsc" />
      </g>
      <path
         id="path331"
         style="fill:#ff6a27;fill-opacity:1;stroke-width:0.553056"
         d="m -637.0682,1164.9466 -2.03758,9.2666 c -0.44633,-0.1211 -0.88583,-0.2114 -1.31776,-0.2728 -0.43304,-0.06 -0.8999,-0.091 -1.40094,-0.091 -1.95287,0 -3.7528,0.3942 -5.39814,1.1818 -1.64645,0.7886 -3.06781,1.8634 -4.26794,3.2267 -1.19901,1.3644 -2.13952,2.9616 -2.82308,4.795 -0.68357,1.834 -1.02526,3.7804 -1.02526,5.8405 0,1.3633 0.14666,2.6438 0.43924,3.8401 0.29257,1.1979 0.75308,2.2436 1.38081,3.1362 0.62769,0.8938 1.43679,1.5987 2.4262,2.1136 0.99055,0.5154 2.18276,0.772 3.57756,0.772 1.17195,0 2.23801,-0.227 3.20032,-0.6816 0.96232,-0.454 1.8333,-1.0291 2.61586,-1.7265 0.13941,0.4242 0.27871,0.8029 0.41807,1.1359 0.13935,0.334 0.29226,0.6814 0.46095,1.0459 l 5.56348,-0.864 c -0.47395,-1.3639 -0.79529,-2.9155 -0.96118,-4.6582 -0.16759,-1.7421 -0.0567,-3.4771 0.33435,-5.2043 l 5.05807,-22.856 z m 83.14325,1.3126 c -1.17195,0 -2.48979,0.068 -3.95428,0.2046 -1.46447,0.1361 -2.99059,0.3709 -4.5806,0.7044 l -6.73653,30.4048 c 1.42301,0.3335 2.90063,0.5761 4.43537,0.7276 1.53416,0.1516 2.88674,0.2274 4.05868,0.2274 3.096,0 5.87108,-0.4545 8.3261,-1.3632 2.45334,-0.9092 4.53879,-2.2047 6.2544,-3.8866 1.715,-1.6813 3.03297,-3.7342 3.95325,-6.1583 0.9203,-2.424 1.38028,-5.1657 1.38028,-8.2268 0,-1.8777 -0.29224,-3.59 -0.879,-5.1341 -0.5851,-1.5452 -1.44423,-2.8787 -2.573,-3.9998 -1.12987,-1.1204 -2.51028,-1.9843 -4.14237,-2.5905 -1.63094,-0.6062 -3.47943,-0.9095 -5.5423,-0.9095 z m -172.48301,0.3633 -6.94479,31.4962 v 0 h 6.48486 l 2.88719,-13.0441 h 10.83704 l 1.29606,-5.8627 h -10.83656 l 1.46452,-6.7262 h 12.2592 l 1.33842,-5.8637 z m 171.81329,5.5898 c 1.2831,0 2.37808,0.1662 3.28454,0.5002 0.90646,0.3341 1.64666,0.811 2.21795,1.431 0.57129,0.6222 0.98301,1.3639 1.23354,2.2272 0.25056,0.8633 0.37671,1.8259 0.37671,2.8867 0,2.0607 -0.28024,3.9151 -0.83716,5.5671 -0.55695,1.6519 -1.34443,3.0457 -2.36316,4.1816 -1.01817,1.1366 -2.25872,2.0078 -3.72432,2.6128 -1.46394,0.6072 -3.10259,0.91 -4.91496,0.91 -0.55856,0 -0.99801,-0.01 -1.31876,-0.023 -0.31967,-0.015 -0.63418,-0.038 -0.94001,-0.068 l 4.43436,-20.0892 c 0.86389,-0.091 1.71506,-0.1364 2.55127,-0.1364 z m -127.86611,1.3638 c -1.98212,0 -3.78724,0.4321 -5.4193,1.296 -1.63097,0.8628 -3.0194,1.9994 -4.16203,3.4081 -1.14533,1.4091 -2.02948,3.0221 -2.65718,4.84 -0.62773,1.8179 -0.94104,3.6973 -0.94104,5.6363 0,1.3633 0.16655,2.6516 0.50281,3.8644 0.33459,1.2117 0.87027,2.2719 1.61025,3.1817 0.73888,0.9081 1.70088,1.6282 2.88663,2.158 1.18579,0.5298 2.64295,0.7953 4.37235,0.7953 1.42248,0 2.74039,-0.1361 3.95324,-0.4082 1.21288,-0.2738 2.21012,-0.576 2.99104,-0.9101 l -0.45993,-5.3174 c -0.80856,0.334 -1.67325,0.5839 -2.59466,0.7498 -0.91916,0.167 -1.82552,0.2501 -2.7187,0.2501 -1.42301,0 -2.46179,-0.2649 -3.1166,-0.7953 -0.65596,-0.5304 -1.08112,-1.4322 -1.27694,-2.7047 2.00761,0 3.86274,-0.1663 5.56504,-0.4998 1.70122,-0.3335 3.17211,-0.8711 4.41317,-1.6138 1.24105,-0.7422 2.21099,-1.7043 2.90785,-2.8856 0.69792,-1.1819 1.04695,-2.6213 1.04695,-4.3181 0,-1.0608 -0.17459,-2.0067 -0.52244,-2.8407 -0.34954,-0.8329 -0.83685,-1.5378 -1.46349,-2.1135 -0.62884,-0.5752 -1.36102,-1.0147 -2.19832,-1.3183 -0.83735,-0.3025 -1.7431,-0.4542 -2.7187,-0.4542 z m 20.16157,0 c -1.98104,0 -3.78725,0.4321 -5.4193,1.296 -1.62986,0.8628 -3.01935,1.9994 -4.16306,3.4081 -1.14427,1.4091 -2.02846,3.0221 -2.65618,4.84 -0.62773,1.8179 -0.94102,3.6973 -0.94102,5.6363 0,1.3633 0.16719,2.6526 0.50178,3.8644 0.3346,1.2117 0.87181,2.2719 1.61179,3.1817 0.73888,0.9081 1.70029,1.6287 2.88716,2.158 1.18465,0.5298 2.64192,0.7953 4.37132,0.7953 1.42248,0 2.74039,-0.1361 3.95324,-0.4082 1.21285,-0.2738 2.21012,-0.576 2.99104,-0.9101 l -0.45993,-5.3174 c -0.80854,0.334 -1.67336,0.5839 -2.59363,0.7498 -0.9203,0.167 -1.82766,0.2501 -2.71973,0.2501 -1.42304,0 -2.46179,-0.2649 -3.11661,-0.7953 -0.65593,-0.5304 -1.08111,-1.4322 -1.27693,-2.7047 2.00872,0 3.86273,-0.1663 5.56504,-0.4998 1.70121,-0.3335 3.17214,-0.8711 4.41317,-1.6138 1.24105,-0.7422 2.20993,-1.7043 2.90679,-2.8856 0.69794,-1.1819 1.04695,-2.6213 1.04695,-4.3181 0,-1.0608 -0.17457,-2.0067 -0.52244,-2.8407 -0.34954,-0.8329 -0.83685,-1.5378 -1.46347,-2.1135 -0.62883,-0.5752 -1.35995,-1.0147 -2.19728,-1.3183 -0.83733,-0.3025 -1.7431,-0.4542 -2.7187,-0.4542 z m 41.99744,0 c -1.98104,0 -3.73901,0.4623 -5.2715,1.3859 -1.53472,0.9253 -2.83218,2.1143 -3.89073,3.5688 -1.06076,1.454 -1.86235,3.0903 -2.40657,4.9082 -0.54366,1.8179 -0.81597,3.6356 -0.81597,5.4534 0,1.4535 0.18134,2.7803 0.54414,3.9765 0.3606,1.1974 0.89895,2.2358 1.61076,3.1135 0.71067,0.8794 1.61017,1.5609 2.69803,2.0449 1.08789,0.4844 2.3699,0.7271 3.8499,0.7271 2.03465,0 3.82739,-0.4624 5.37538,-1.386 1.548,-0.9236 2.83859,-2.1126 3.87004,-3.5677 1.03142,-1.454 1.81263,-3.0909 2.34301,-4.9088 0.52983,-1.8179 0.79529,-3.6355 0.79529,-5.4534 3e-5,-1.4545 -0.18243,-2.7791 -0.54414,-3.977 -0.36283,-1.1963 -0.89908,-2.2342 -1.60973,-3.1135 -0.71289,-0.8783 -1.61917,-1.5593 -2.71973,-2.0443 -1.10278,-0.4851 -2.3786,-0.7276 -3.82818,-0.7276 z m 93.83871,0.09 c -1.9241,0 -3.70929,0.3937 -5.35574,1.1818 -1.64645,0.7881 -3.07412,1.8712 -4.28811,3.2494 -1.21338,1.3794 -2.16172,2.9917 -2.8453,4.84 -0.68299,1.8484 -1.02476,3.8176 -1.02476,5.9087 0,1.3627 0.13941,2.6438 0.41704,3.8401 0.27874,1.1974 0.73348,2.2425 1.36012,3.1368 0.62878,0.8931 1.43676,1.6059 2.42723,2.1357 0.99055,0.5299 2.18228,0.7948 3.57653,0.7948 1.17195,0 2.23171,-0.2265 3.18019,-0.6811 0.94684,-0.454 1.81382,-1.0291 2.59363,-1.7265 0.13938,0.4242 0.27863,0.8029 0.4191,1.1359 0.13936,0.334 0.29234,0.682 0.45992,1.0459 l 5.56504,-0.864 c -0.47509,-1.3639 -0.7946,-2.916 -0.96327,-4.6581 -0.16645,-1.7422 -0.0567,-3.4772 0.33435,-5.2044 l 2.7213,-12.3625 c -0.81024,-0.4248 -1.66077,-0.7577 -2.55284,-1.0005 -0.89212,-0.2417 -1.74318,-0.4157 -2.5523,-0.5224 -0.80909,-0.1057 -1.52612,-0.1738 -2.15387,-0.2042 -0.62772,-0.03 -1.06772,-0.046 -1.31826,-0.046 z m -71.76719,0 c -1.11715,0 -2.09854,0.053 -2.94968,0.1586 -0.85117,0.1068 -1.61822,0.2428 -2.30063,0.4093 -0.68358,0.1659 -1.29651,0.3478 -1.84074,0.5442 -0.54475,0.1974 -1.05359,0.3719 -1.52754,0.5229 l -5.05862,22.8146 h 6.23321 l 4.05712,-18.497 c 0.41921,-0.091 0.78081,-0.1598 1.08778,-0.2052 0.30806,-0.045 0.68384,-0.068 1.13017,-0.068 1.05966,0 1.77141,0.3117 2.13423,0.9328 0.36166,0.6211 0.54417,1.3562 0.54417,2.2029 0,0.5161 -0.0498,1.0397 -0.14832,1.5689 -0.0973,0.5304 -0.18672,1.0073 -0.27078,1.431 l -2.76108,12.6354 h 6.23374 l 2.84427,-12.9073 c 0.13936,-0.6061 0.24395,-1.2118 0.31419,-1.8179 0.0691,-0.6062 0.10438,-1.1817 0.10438,-1.7271 v -0.5906 c 0,-0.2113 -0.0278,-0.4388 -0.0842,-0.6822 0.4181,-0.2411 0.89228,-0.4765 1.42264,-0.7038 0.52927,-0.2273 1.08712,-0.341 1.67277,-0.341 1.05966,0 1.77195,0.3116 2.13474,0.9327 0.36169,0.6211 0.54261,1.3562 0.54261,2.203 0,0.516 -0.0483,1.0396 -0.14676,1.5689 -0.0973,0.5303 -0.18834,1.0073 -0.27131,1.4309 l -2.76159,12.6354 h 6.23322 l 2.8453,-12.9072 c 0.13938,-0.6062 0.24394,-1.2118 0.31419,-1.818 0.0691,-0.6062 0.10491,-1.1817 0.10491,-1.727 0,-1.1819 -0.14087,-2.265 -0.4196,-3.25 -0.27874,-0.9849 -0.72509,-1.8327 -1.33843,-2.5455 -0.61333,-0.7118 -1.38713,-1.2567 -2.32182,-1.6356 -0.93464,-0.3788 -2.057,-0.5679 -3.36828,-0.5679 -1.3666,0 -2.55886,0.2041 -3.5765,0.6134 -1.01876,0.4081 -2.04433,0.9313 -3.07578,1.5673 -0.72618,-0.7267 -1.52729,-1.2727 -2.40554,-1.6355 -0.87826,-0.3639 -1.988,-0.5452 -3.32642,-0.5452 z m -99.84557,0.045 c -1.86876,0 -3.54944,0.1885 -5.04106,0.5679 -1.4927,0.3794 -2.83797,0.7804 -4.03696,1.2046 l -5.02036,22.6332 h 6.23321 l 4.05712,-18.3617 c 0.30806,-0.09 0.69805,-0.1732 1.17203,-0.2501 0.4745,-0.075 0.90659,-0.1131 1.29759,-0.1131 1.05966,0 1.86132,0.068 2.40554,0.2051 0.5442,0.1361 1.09403,0.28 1.65262,0.431 l 1.8407,-5.4545 c -0.64153,-0.3019 -1.38808,-0.5223 -2.23811,-0.6583 -0.85114,-0.1361 -1.62549,-0.2041 -2.32232,-0.2041 z m 181.72739,0.5002 c 0.22344,4.7269 0.63391,8.9689 1.23454,12.7258 0.58349,3.6541 1.22611,6.9574 1.92908,9.9229 -0.083,0.2694 -0.16518,0.5401 -0.25477,0.8067 -0.24,0.7184 -3.72327,7.45 -4.44828,8.1768 l 1.99832,0.31 3.56516,0.554 c 1.33839,-1.0906 8.23473,-13.544 9.155,-15.1805 0.9203,-1.6359 1.81235,-3.3548 2.67788,-5.1578 0.86386,-1.803 1.69447,-3.7037 2.48975,-5.704 0.79418,-1.9993 1.58113,-4.1516 2.36316,-6.4534 h -6.12778 v 0 h -0.014 -0.46768 c -0.89316,3.2116 -1.84838,6.1508 -2.86599,8.8165 -1.01873,2.6669 -2.19615,5.0907 -3.53568,7.2714 -0.16757,-1.0906 -0.32055,-2.3171 -0.45993,-3.6809 -0.14049,-1.3633 -0.26559,-2.7642 -0.37621,-4.2044 -0.0338,-0.4159 -0.0554,-0.8265 -0.0853,-1.2413 -0.0735,-1.0204 -0.14798,-2.0409 -0.20825,-3.0535 -0.083,-1.4236 -0.14089,-2.727 -0.1669,-3.9078 z m -167.11795,4.7263 c 1.50762,0 2.25928,0.7273 2.25928,2.1807 0,0.4248 -0.0978,0.8492 -0.29247,1.2728 -0.19527,0.4248 -0.58524,0.8185 -1.17203,1.1819 -0.58457,0.3645 -1.40853,0.675 -2.46705,0.9322 -1.06077,0.2572 -2.45536,0.4172 -4.18476,0.4775 0.33571,-1.8184 1.03955,-3.2801 2.1141,-4.3868 1.07183,-1.105 2.32156,-1.6583 3.74293,-1.6583 z m 20.16257,0 c 1.50598,0 2.25981,0.7273 2.25981,2.1807 0,0.4248 -0.0988,0.8492 -0.2935,1.2728 -0.19524,0.4248 -0.58523,0.8185 -1.17203,1.1819 -0.58457,0.3645 -1.40845,0.675 -2.46703,0.9322 -1.06074,0.2572 -2.45533,0.4172 -4.18475,0.4775 0.33462,-1.8184 1.03952,-3.2801 2.11304,-4.3868 1.07347,-1.105 2.32204,-1.6583 3.74446,-1.6583 z m 136.29555,0.3183 c 0.41921,0 0.77507,0.015 1.06765,0.045 0.29258,0.03 0.62008,0.076 0.98287,0.1359 l -1.63038,7.1815 c -0.14047,0.6974 -0.27229,1.4621 -0.39894,2.295 -0.12499,0.8329 -0.2149,1.6293 -0.27131,2.3859 -0.58515,0.6365 -1.13662,1.0911 -1.65208,1.3637 -0.51763,0.2727 -1.09588,0.4088 -1.73633,0.4088 -1.20012,0 -2.02277,-0.4245 -2.46909,-1.2723 -0.4463,-0.8478 -0.66974,-2 -0.66974,-3.4546 0,-1.1818 0.17338,-2.3179 0.52348,-3.4091 0.34787,-1.0906 0.82949,-2.0511 1.44282,-2.8851 0.61222,-0.834 1.33197,-1.5076 2.1549,-2.0231 0.82241,-0.5138 1.70768,-0.772 2.65615,-0.772 z m -93.88003,0.045 c 1.16972,0 1.97987,0.4166 2.4262,1.2501 0.44632,0.834 0.66868,2.0219 0.66868,3.5677 0,0.9397 -0.1188,1.9313 -0.35552,2.9771 -0.2367,1.0453 -0.59322,2.0079 -1.06609,2.8866 -0.47564,0.8789 -1.06066,1.6062 -1.75752,2.1808 -0.69797,0.5757 -1.50643,0.864 -2.42673,0.864 -1.17189,0 -1.98091,-0.4166 -2.42723,-1.25 -0.44628,-0.8329 -0.66972,-2.0225 -0.66972,-3.5678 0,-0.9385 0.11875,-1.9312 0.35655,-2.9771 0.2367,-1.0458 0.59262,-2.0072 1.06662,-2.8866 0.4745,-0.8782 1.05955,-1.605 1.75752,-2.1813 0.69686,-0.5757 1.50582,-0.8635 2.42724,-0.8635 z m -21.48036,0.1354 h 0.75345 c 0.19468,0 0.35449,0.01 0.48059,0.023 0.12557,0.016 0.25069,0.038 0.37621,0.068 0.12666,0.031 0.27221,0.061 0.43977,0.091 l -1.54771,6.9991 c -0.14047,0.698 -0.27183,1.4626 -0.3974,2.2949 -0.12555,0.8335 -0.21757,1.6294 -0.27234,2.3859 -0.58565,0.636 -1.14345,1.0911 -1.67275,1.3638 -0.53036,0.2726 -1.11596,0.4087 -1.75752,0.4087 -1.20012,0 -2.02861,-0.416 -2.48875,-1.2505 -0.46127,-0.8324 -0.69144,-1.9763 -0.69144,-3.4308 0,-1.12 0.16881,-2.2192 0.50232,-3.2949 0.33459,-1.0757 0.80137,-2.0378 1.40197,-2.8861 0.59952,-0.8479 1.31763,-1.5232 2.1544,-2.0232 0.83621,-0.4994 1.74249,-0.7493 2.7192,-0.7493 z" />
    </g>
    <text
       xml:space="preserve"
       style="font-style:italic;font-variant:normal;font-weight:800;font-stretch:normal;font-size:7.67501px;line-height:1.25;font-family:Ubuntu;-inkscape-font-specification:'Ubuntu Ultra-Bold Italic';text-align:start;text-decoration-color:#000000;writing-mode:lr-tb;direction:ltr;text-anchor:start;opacity:0.75;fill:#808080;fill-opacity:1;stroke:#808080;stroke-width:0.0952435;-inkscape-stroke:none"
       x="279.50015"
       y="138.65393"
       id="text46"><tspan
         sodipodi:role="line"
         style="text-align:start;text-anchor:start;fill:#808080;stroke:#808080;stroke-width:0.0952435"
         x="279.50015"
         y="138.65393"
         id="tspan47">Open Standards for Freedom of Choice</tspan></text>
    <text
       xml:space="preserve"
       style="font-style:normal;font-variant:normal;font-weight:800;font-stretch:normal;font-size:4.37862px;line-height:1.25;font-family:Ubuntu;-inkscape-font-specification:'Ubuntu Ultra-Bold';text-align:start;text-decoration-color:#000000;writing-mode:lr-tb;direction:ltr;text-anchor:start;opacity:0.99999999;mix-blend-mode:color-burn;fill:#808080;fill-opacity:1;stroke:#808080;stroke-width:0.0169913;-inkscape-stroke:none"
       x="201.2789"
       y="254.867"
       id="text49"
       transform="rotate(-40.152107)"><tspan
         sodipodi:role="line"
         id="tspan49"
         style="font-style:normal;font-variant:normal;font-weight:800;font-stretch:normal;font-family:Ubuntu;-inkscape-font-specification:'Ubuntu Ultra-Bold';stroke-width:0.0169913"
         x="201.2789"
         y="254.867">SVG</tspan></text>
    <text
       xml:space="preserve"
       style="font-style:normal;font-variant:normal;font-weight:800;font-stretch:normal;font-size:4.73687px;line-height:1.25;font-family:Ubuntu;-inkscape-font-specification:'Ubuntu Ultra-Bold';text-align:start;text-decoration-color:#000000;writing-mode:lr-tb;direction:ltr;text-anchor:start;opacity:0.99999999;mix-blend-mode:color-burn;fill:#808080;fill-opacity:1;stroke:#808080;stroke-width:0.0183815;-inkscape-stroke:none"
       x="153.39716"
       y="247.28462"
       id="text48"
       transform="rotate(-44.689693)"><tspan
         sodipodi:role="line"
         id="tspan48"
         style="font-style:normal;font-variant:normal;font-weight:800;font-stretch:normal;font-family:Ubuntu;-inkscape-font-specification:'Ubuntu Ultra-Bold';stroke-width:0.0183815"
         x="153.39716"
         y="247.28462">ODF</tspan></text>
    <text
       xml:space="preserve"
       style="font-style:normal;font-variant:normal;font-weight:800;font-stretch:normal;font-size:3.77591px;line-height:1.25;font-family:Ubuntu;-inkscape-font-specification:'Ubuntu Ultra-Bold';text-align:start;text-decoration-color:#000000;writing-mode:lr-tb;direction:ltr;text-anchor:start;opacity:0.99999999;mix-blend-mode:color-burn;fill:#808080;fill-opacity:1;stroke:#808080;stroke-width:0.0454204;-inkscape-stroke:none"
       x="245.65468"
       y="202.85275"
       id="text50"
       transform="rotate(-34.180507)"><tspan
         sodipodi:role="line"
         id="tspan50"
         style="font-size:3.77591px;stroke-width:0.0454204"
         x="245.65468"
         y="202.85275">PDF</tspan></text>
    <text
       xml:space="preserve"
       style="font-style:normal;font-variant:normal;font-weight:800;font-stretch:normal;font-size:3.38812px;line-height:1.25;font-family:Ubuntu;-inkscape-font-specification:'Ubuntu Ultra-Bold';text-align:start;text-decoration-color:#000000;writing-mode:lr-tb;direction:ltr;text-anchor:start;opacity:0.99999999;mix-blend-mode:color-burn;fill:#808080;fill-opacity:1;stroke:#808080;stroke-width:0.0407557;-inkscape-stroke:none"
       x="203.47902"
       y="286.2576"
       id="text51"
       transform="rotate(-49.101143)"><tspan
         sodipodi:role="line"
         id="tspan51"
         style="font-size:3.38812px;stroke-width:0.0407557"
         x="203.47902"
         y="286.2576">OGG</tspan></text>
    <text
       xml:space="preserve"
       style="font-style:normal;font-variant:normal;font-weight:800;font-stretch:normal;font-size:2.27401px;line-height:1.25;font-family:Ubuntu;-inkscape-font-specification:'Ubuntu Ultra-Bold';text-align:start;text-decoration-color:#000000;writing-mode:lr-tb;direction:ltr;text-anchor:start;opacity:0.99999999;mix-blend-mode:color-burn;fill:#808080;fill-opacity:1;stroke:#808080;stroke-width:0.0273541;-inkscape-stroke:none"
       x="280.5607"
       y="208.92545"
       id="text52"
       transform="rotate(-35.062216)"><tspan
         sodipodi:role="line"
         id="tspan52"
         style="font-size:2.27401px;stroke-width:0.0273541"
         x="280.5607"
         y="208.92545">opus</tspan></text>
    <text
       xml:space="preserve"
       style="font-style:normal;font-variant:normal;font-weight:800;font-stretch:normal;font-size:4.18347px;line-height:1.25;font-family:Ubuntu;-inkscape-font-specification:'Ubuntu Ultra-Bold';text-align:start;text-decoration-color:#000000;writing-mode:lr-tb;direction:ltr;text-anchor:start;opacity:0.99999999;mix-blend-mode:color-burn;fill:#808080;fill-opacity:1;stroke:#808080;stroke-width:0.0503229;-inkscape-stroke:none"
       x="109.23955"
       y="331.17056"
       id="text53"
       transform="rotate(-56.45125)"><tspan
         sodipodi:role="line"
         id="tspan53"
         style="font-size:4.18347px;stroke-width:0.0503229"
         x="109.23955"
         y="331.17056">PNG</tspan></text>
    <text
       xml:space="preserve"
       style="font-style:normal;font-variant:normal;font-weight:800;font-stretch:normal;font-size:3.0465px;line-height:1.25;font-family:Ubuntu;-inkscape-font-specification:'Ubuntu Ultra-Bold';text-align:start;text-decoration-color:#000000;writing-mode:lr-tb;direction:ltr;text-anchor:start;opacity:0.99999999;mix-blend-mode:color-burn;fill:#808080;fill-opacity:1;stroke:#808080;stroke-width:0.0366462;-inkscape-stroke:none"
       x="263.28415"
       y="262.22342"
       id="text54"
       transform="rotate(-42.7562)"><tspan
         sodipodi:role="line"
         id="tspan54"
         style="font-size:3.0465px;stroke-width:0.0366462"
         x="263.28415"
         y="262.22342">flac</tspan></text>
    <text
       xml:space="preserve"
       style="font-style:normal;font-variant:normal;font-weight:800;font-stretch:normal;font-size:4.30163px;line-height:1.25;font-family:Ubuntu;-inkscape-font-specification:'Ubuntu Ultra-Bold';text-align:start;text-decoration-color:#000000;writing-mode:lr-tb;direction:ltr;text-anchor:start;opacity:0.99999999;mix-blend-mode:color-burn;fill:#808080;fill-opacity:1;stroke:#808080;stroke-width:0.0517442;-inkscape-stroke:none"
       x="143.91386"
       y="330.9841"
       id="text55"
       transform="rotate(-56.826686)"><tspan
         sodipodi:role="line"
         id="tspan55"
         style="font-size:4.30163px;stroke-width:0.0517442"
         x="143.91386"
         y="330.9841">CSS</tspan></text>
    <text
       xml:space="preserve"
       style="font-style:normal;font-variant:normal;font-weight:800;font-stretch:normal;font-size:2.24992px;line-height:1.25;font-family:Ubuntu;-inkscape-font-specification:'Ubuntu Ultra-Bold';text-align:start;text-decoration-color:#000000;writing-mode:lr-tb;direction:ltr;text-anchor:start;opacity:0.99999999;mix-blend-mode:color-burn;fill:#808080;fill-opacity:1;stroke:#808080;stroke-width:0.0270642;-inkscape-stroke:none"
       x="180.53114"
       y="336.02951"
       id="text56"
       transform="rotate(-56.834229)"><tspan
         sodipodi:role="line"
         id="tspan56"
         style="font-size:2.24992px;stroke-width:0.0270642"
         x="180.53114"
         y="336.02951">html</tspan></text>
    <text
       xml:space="preserve"
       style="font-style:normal;font-variant:normal;font-weight:800;font-stretch:normal;font-size:2.40128px;line-height:1.25;font-family:Ubuntu;-inkscape-font-specification:'Ubuntu Ultra-Bold';text-align:start;text-decoration-color:#000000;writing-mode:lr-tb;direction:ltr;text-anchor:start;opacity:0.99999999;mix-blend-mode:color-burn;fill:#808080;fill-opacity:1;stroke:#808080;stroke-width:0.0288848;-inkscape-stroke:none"
       x="282.27878"
       y="267.94839"
       id="text57"
       transform="rotate(-42.7562)"><tspan
         sodipodi:role="line"
         id="tspan57"
         style="font-size:2.40128px;stroke-width:0.0288848"
         x="282.27878"
         y="267.94839">gpl</tspan></text>
    <text
       xml:space="preserve"
       style="font-style:normal;font-variant:normal;font-weight:800;font-stretch:normal;font-size:1.04476px;line-height:1.25;font-family:Ubuntu;-inkscape-font-specification:'Ubuntu Ultra-Bold';text-align:start;text-decoration-color:#000000;writing-mode:lr-tb;direction:ltr;text-anchor:start;opacity:0.99999999;mix-blend-mode:color-burn;fill:#808080;fill-opacity:1;stroke:#808080;stroke-width:0.0125673;-inkscape-stroke:none"
       x="241.22113"
       y="313.07538"
       id="text58"
       transform="rotate(-49.763929)"><tspan
         sodipodi:role="line"
         id="tspan58"
         style="font-size:1.04476px;stroke-width:0.0125673"
         x="241.22113"
         y="313.07538">CSV</tspan></text>
    <text
       xml:space="preserve"
       style="font-style:normal;font-variant:normal;font-weight:800;font-stretch:normal;font-size:1.27298px;line-height:1.25;font-family:Ubuntu;-inkscape-font-specification:'Ubuntu Ultra-Bold';text-align:start;text-decoration-color:#000000;writing-mode:lr-tb;direction:ltr;text-anchor:start;opacity:0.99999999;mix-blend-mode:color-burn;fill:#808080;fill-opacity:1;stroke:#808080;stroke-width:0.0153125;-inkscape-stroke:none"
       x="252.82629"
       y="313.88522"
       id="text59"
       transform="rotate(-49.763929)"><tspan
         sodipodi:role="line"
         id="tspan59"
         style="font-size:1.27298px;stroke-width:0.0153125"
         x="252.82629"
         y="313.88522">tex</tspan></text>
    <text
       xml:space="preserve"
       style="font-style:normal;font-variant:normal;font-weight:800;font-stretch:normal;font-size:0.793682px;line-height:1.25;font-family:Ubuntu;-inkscape-font-specification:'Ubuntu Ultra-Bold';text-align:start;text-decoration-color:#000000;writing-mode:lr-tb;direction:ltr;text-anchor:start;opacity:0.99999999;mix-blend-mode:color-burn;fill:#808080;fill-opacity:1;stroke:#808080;stroke-width:0.00954709;-inkscape-stroke:none"
       x="256.36255"
       y="320.48196"
       id="text60"
       transform="rotate(-49.763929)"><tspan
         sodipodi:role="line"
         id="tspan60"
         style="font-size:0.793682px;stroke-width:0.00954709"
         x="256.36255"
         y="320.48196">smil</tspan></text>
    <text
       xml:space="preserve"
       style="font-style:normal;font-variant:normal;font-weight:800;font-stretch:normal;font-size:0.604015px;line-height:1.25;font-family:Ubuntu;-inkscape-font-specification:'Ubuntu Ultra-Bold';text-align:start;text-decoration-color:#000000;writing-mode:lr-tb;direction:ltr;text-anchor:start;opacity:0.99999999;mix-blend-mode:color-burn;fill:#808080;fill-opacity:1;stroke:#808080;stroke-width:0.00726561;-inkscape-stroke:none"
       x="307.79721"
       y="265.07452"
       id="text61"
       transform="rotate(-40.687427)"><tspan
         sodipodi:role="line"
         id="tspan61"
         style="font-size:0.604015px;stroke-width:0.00726561"
         x="307.79721"
         y="265.07452">speex</tspan></text>
    <text
       xml:space="preserve"
       style="font-style:normal;font-variant:normal;font-weight:800;font-stretch:normal;font-size:0.604015px;line-height:1.25;font-family:Ubuntu;-inkscape-font-specification:'Ubuntu Ultra-Bold';text-align:start;text-decoration-color:#000000;writing-mode:lr-tb;direction:ltr;text-anchor:start;opacity:0.99999999;mix-blend-mode:color-burn;fill:#808080;fill-opacity:1;stroke:#808080;stroke-width:0.00726561;-inkscape-stroke:none"
       x="247.63953"
       y="331.72382"
       id="text62"
       transform="rotate(-53.414762)"><tspan
         sodipodi:role="line"
         id="tspan62"
         style="font-size:0.604015px;stroke-width:0.00726561"
         x="247.63953"
         y="331.72382">kra</tspan></text>
    <text
       xml:space="preserve"
       style="font-style:normal;font-variant:normal;font-weight:800;font-stretch:normal;font-size:0.604015px;line-height:1.25;font-family:Ubuntu;-inkscape-font-specification:'Ubuntu Ultra-Bold';text-align:start;text-decoration-color:#000000;writing-mode:lr-tb;direction:ltr;text-anchor:start;opacity:0.99999999;mix-blend-mode:color-burn;fill:#808080;fill-opacity:1;stroke:#808080;stroke-width:0.00726561;-inkscape-stroke:none"
       x="243.09071"
       y="337.16229"
       id="text63"
       transform="rotate(-53.414762)"><tspan
         sodipodi:role="line"
         id="tspan63"
         style="font-size:0.604015px;stroke-width:0.00726561"
         x="243.09071"
         y="337.16229">xcf</tspan></text>
    <text
       xml:space="preserve"
       style="font-style:normal;font-variant:normal;font-weight:800;font-stretch:normal;font-size:0.604015px;line-height:1.25;font-family:Ubuntu;-inkscape-font-specification:'Ubuntu Ultra-Bold';text-align:start;text-decoration-color:#000000;writing-mode:lr-tb;direction:ltr;text-anchor:start;opacity:0.99999999;mix-blend-mode:color-burn;fill:#808080;fill-opacity:1;stroke:#808080;stroke-width:0.00726561;-inkscape-stroke:none"
       x="254.0985"
       y="338.10205"
       id="text64"
       transform="rotate(-53.414762)"><tspan
         sodipodi:role="line"
         id="tspan64"
         style="font-size:0.604015px;stroke-width:0.00726561"
         x="254.0985"
         y="338.10205">txt</tspan></text>
  </g>
</svg>
